# xmcd
#
# Track frame offsets: 
#        150
#        18025
#        39048
#        57313
#        90193
#
# Disc length: 1439 seconds
#
# Revision: 0
# Processed by: cddbd v1.5.2PL0 Copyright (c) Steve Scherf et al.
# Submitted via: ExactAudioCopyFreeDBPlugin 1.0
#
DISCID=25059d05
DTITLE=DELS - TRUMPALUMP - Promo CD
DYEAR=2010
DGENRE=Hip-Hop
TTITLE0=Trumpalump
TTITLE1=Trumpalump - Joe Goddard Remix
TTITLE2=Trumpalump - Paper Tiger Remix
TTITLE3=Trumpalump - Gwylm Gold's "Way below hell" Remix
TTITLE4=Trumpalump - Instrumental
EXTD=
EXTT0=
EXTT1=
EXTT2=
EXTT3=
EXTT4=
PLAYORDER=
